<?xml version="1.0" ?><!DOCTYPE svg  PUBLIC '-//W3C//DTD SVG 1.1//EN'  'http://www.w3.org/Graphics/SVG/1.1/DTD/svg11.dtd'><svg enable-background="new 0 0 144.86 184.757" id="Layer_1" version="1.1" viewBox="0 0 144.86 184.757" xml:space="preserve" xmlns="http://www.w3.org/2000/svg" xmlns:xlink="http://www.w3.org/1999/xlink"><g><path d="M115.994,177.243H14.509c-1.381,0-2.5-1.119-2.5-2.5v-135c0-1.381,1.119-2.5,2.5-2.5h101.484   c12.14,0,22.016,9.876,22.016,22.016v95.969C138.009,167.367,128.133,177.243,115.994,177.243z M17.009,172.243h98.984   c9.383,0,17.016-7.633,17.016-17.016V59.259c0-9.382-7.633-17.016-17.016-17.016H17.009V172.243z"/><g><path d="M115.994,14.243H77.509H34.025H14.009v19.016v95.969v20.016h20.016h43.484h38.484    c10.778,0,19.016-9.237,19.016-20.016V33.259C135.009,22.48,126.772,14.243,115.994,14.243z" fill="#FFFFFF"/><path d="M115.994,151.243H14.509c-1.381,0-2.5-1.119-2.5-2.5v-135c0-1.381,1.119-2.5,2.5-2.5h101.484    c12.14,0,22.016,9.876,22.016,22.016v95.969C138.009,141.367,128.133,151.243,115.994,151.243z M17.009,146.243h98.984    c9.383,0,17.016-7.633,17.016-17.016V33.259c0-9.382-7.633-17.016-17.016-17.016H17.009V146.243z"/></g><path d="M115.009,160.243h-88c-1.381,0-2.5-1.119-2.5-2.5s1.119-2.5,2.5-2.5h88c1.381,0,2.5,1.119,2.5,2.5   S116.39,160.243,115.009,160.243z"/><path d="M115.009,169.243h-88c-1.381,0-2.5-1.119-2.5-2.5s1.119-2.5,2.5-2.5h88c1.381,0,2.5,1.119,2.5,2.5   S116.39,169.243,115.009,169.243z"/><path d="M72.509,134.743c-1.381,0-2.5-1.119-2.5-2.5v-99c0-1.381,1.119-2.5,2.5-2.5s2.5,1.119,2.5,2.5v99   C75.009,133.624,73.89,134.743,72.509,134.743z"/><path d="M101.009,65.243h-57c-1.381,0-2.5-1.119-2.5-2.5c0-1.381,1.119-2.5,2.5-2.5h57c1.381,0,2.5,1.119,2.5,2.5   C103.509,64.124,102.39,65.243,101.009,65.243z"/><g><polygon fill="#FFFFFF" points="53.009,128.743 41.009,136.743 29.009,128.743 29.009,14.243 53.009,14.243   "/><path d="M41.509,139.243c-0.483,0-0.967-0.14-1.387-0.42l-12-8c-0.695-0.464-1.113-1.244-1.113-2.08v-115    c0-1.381,1.119-2.5,2.5-2.5h24c1.381,0,2.5,1.119,2.5,2.5v115c0,0.836-0.418,1.616-1.113,2.08l-12,8    C42.476,139.103,41.993,139.243,41.509,139.243z M32.009,127.405l9.5,6.333l9.5-6.333V16.243h-19V127.405z"/></g><g><path d="M44.691,31.425c-0.384,0-0.768-0.146-1.061-0.439l-6.364-6.364c-0.586-0.585-0.586-1.536,0-2.121    c0.586-0.586,1.535-0.586,2.121,0l6.364,6.364c0.586,0.585,0.586,1.536,0,2.121C45.459,31.279,45.075,31.425,44.691,31.425z"/><path d="M38.327,31.425c-0.384,0-0.768-0.146-1.061-0.439c-0.586-0.585-0.586-1.536,0-2.121l6.364-6.364    c0.586-0.586,1.535-0.586,2.121,0c0.586,0.585,0.586,1.536,0,2.121l-6.364,6.364C39.095,31.279,38.711,31.425,38.327,31.425z"/></g><g><path d="M44.691,46.425c-0.384,0-0.768-0.146-1.061-0.439l-6.364-6.364c-0.586-0.585-0.586-1.536,0-2.121    c0.586-0.586,1.535-0.586,2.121,0l6.364,6.364c0.586,0.585,0.586,1.536,0,2.121C45.459,46.279,45.075,46.425,44.691,46.425z"/><path d="M38.327,46.425c-0.384,0-0.768-0.146-1.061-0.439c-0.586-0.585-0.586-1.536,0-2.121l6.364-6.364    c0.586-0.586,1.535-0.586,2.121,0c0.586,0.585,0.586,1.536,0,2.121l-6.364,6.364C39.095,46.279,38.711,46.425,38.327,46.425z"/></g><g><path d="M44.691,61.425c-0.384,0-0.768-0.146-1.061-0.439l-6.364-6.364c-0.586-0.585-0.586-1.536,0-2.121    c0.586-0.586,1.535-0.586,2.121,0l6.364,6.364c0.586,0.585,0.586,1.536,0,2.121C45.459,61.279,45.075,61.425,44.691,61.425z"/><path d="M38.327,61.425c-0.384,0-0.768-0.146-1.061-0.439c-0.586-0.585-0.586-1.536,0-2.121l6.364-6.364    c0.586-0.586,1.535-0.586,2.121,0c0.586,0.585,0.586,1.536,0,2.121l-6.364,6.364C39.095,61.279,38.711,61.425,38.327,61.425z"/></g><g><path d="M44.691,76.425c-0.384,0-0.768-0.146-1.061-0.439l-6.364-6.364c-0.586-0.585-0.586-1.536,0-2.121    c0.586-0.586,1.535-0.586,2.121,0l6.364,6.364c0.586,0.585,0.586,1.536,0,2.121C45.459,76.279,45.075,76.425,44.691,76.425z"/><path d="M38.327,76.425c-0.384,0-0.768-0.146-1.061-0.439c-0.586-0.585-0.586-1.536,0-2.121l6.364-6.364    c0.586-0.586,1.535-0.586,2.121,0c0.586,0.585,0.586,1.536,0,2.121l-6.364,6.364C39.095,76.279,38.711,76.425,38.327,76.425z"/></g><g><path d="M44.691,91.425c-0.384,0-0.768-0.146-1.061-0.439l-6.364-6.364c-0.586-0.585-0.586-1.536,0-2.121    c0.586-0.586,1.535-0.586,2.121,0l6.364,6.364c0.586,0.585,0.586,1.536,0,2.121C45.459,91.279,45.075,91.425,44.691,91.425z"/><path d="M38.327,91.425c-0.384,0-0.768-0.146-1.061-0.439c-0.586-0.585-0.586-1.536,0-2.121l6.364-6.364    c0.586-0.586,1.535-0.586,2.121,0c0.586,0.585,0.586,1.536,0,2.121l-6.364,6.364C39.095,91.279,38.711,91.425,38.327,91.425z"/></g><g><path d="M44.691,106.425c-0.384,0-0.768-0.146-1.061-0.439l-6.364-6.363c-0.586-0.586-0.586-1.535,0-2.121    c0.585-0.586,1.535-0.586,2.121,0l6.364,6.363c0.586,0.586,0.586,1.535,0,2.121C45.46,106.278,45.075,106.425,44.691,106.425z"/><path d="M38.327,106.425c-0.384,0-0.768-0.146-1.061-0.439c-0.586-0.586-0.586-1.535,0-2.121l6.364-6.363    c0.586-0.586,1.536-0.586,2.121,0c0.586,0.586,0.586,1.535,0,2.121l-6.364,6.363C39.095,106.278,38.711,106.425,38.327,106.425z"/></g><g><path d="M44.691,121.425c-0.384,0-0.768-0.146-1.061-0.439l-6.364-6.363c-0.586-0.586-0.586-1.535,0-2.121    c0.585-0.586,1.535-0.586,2.121,0l6.364,6.363c0.586,0.586,0.586,1.535,0,2.121C45.46,121.278,45.075,121.425,44.691,121.425z"/><path d="M38.327,121.425c-0.384,0-0.768-0.146-1.061-0.439c-0.586-0.586-0.586-1.535,0-2.121l6.364-6.363    c0.586-0.586,1.536-0.586,2.121,0c0.586,0.586,0.586,1.535,0,2.121l-6.364,6.363C39.095,121.278,38.711,121.425,38.327,121.425z"/></g></g></svg>